<svg id="arrow" viewBox="0 0 73.5 186.5" style="filter: url(#arrow-shadow);"><defs><filter id="arrow-shadow" height="200%" width="200%" x="-50%" y="-50%"><feOffset dx="1" dy="1" in="SourceAlpha" result="ShadowOffsetOuter"></feOffset><feGaussianBlur in="ShadowOffsetOuter" stdDeviation="3" result="ShadowBlurOuter"></feGaussianBlur><feBlend in="SourceGraphic" in2="ShadowBlurOuter" mode="normal"></feBlend></filter></defs><path d="  M72.2,62c1.1,1.3,1.5,2.9,1.3,4.6c-0.2,1.7-1,3.1-2.4,4.2
c-1.3,1.1-2.9,1.5-4.6,1.3c-1.7-0.2-3.1-1-4.2-2.4c-7.8-10.1-18.4-18.3-19-28.3c2.5,40.3,1.7,98.2-5.1,142.7
c-1.1,1.5-2.5,2.3-4.2,2.5c-1.7,0.2-3.3-0.2-4.6-1.3c-1.4-1-2.2-2.4-2.4-4.1c-0.2-1.7,1.2-4.5,1.2-4.5c6.2-31.2,5.9-96.1,2.5-135.8
C26,50.6,19.3,59.5,10.6,67.5c-1.3,1.2-2.8,1.7-4.5,1.7c-1.7-0.1-3.2-0.7-4.4-2c-1.2-1.3-1.7-2.8-1.7-4.5c0.1-1.8,0.7-3.2,2-4.4
c11.2-10.3,18.7-22.7,22.7-37c0.6-2.5,1.3-5.7,2.1-9.7l-0.4-2.2c-0.2-1.5,0-2.9,0.4-4c0.8-2.9,2.7-4.7,5.7-5.3
c3.1-0.7,5.6,0.4,7.5,3.1c0.7,1,1.2,2.3,1.4,4c0.1,0.2,0.2,0.7,0.3,1.4l0.1,0.8c0.1,0.1,0.1,0.2,0.1,0.4c1.2,2.6,4.2,8.8,9,18.6
C55.7,38.9,62.9,50.1,72.2,62L72.2,62z" fill="#FFF"></path></svg>